<svg id="smartphone_1_" data-name="smartphone (1)" xmlns="http://www.w3.org/2000/svg" xmlns:xlink="http://www.w3.org/1999/xlink" width="233.645" height="220.101" viewBox="0 0 233.645 220.101">
  <defs>
    <linearGradient id="linear-gradient" x1="0.124" y1="0.755" x2="0.906" y2="0.27" gradientUnits="objectBoundingBox">
      <stop offset="0" stop-color="#dcfdee" stop-opacity="0"/>
      <stop offset="0.629" stop-color="#d2f3e4"/>
    </linearGradient>
  </defs>
  <g id="Group_1681" data-name="Group 1681">
    <path id="Path_11" data-name="Path 11" d="M9.281,67.544C-1.656,85.523-2.809,116.652,5.2,136.111c7.017,17.045,20.976,33.043,39.3,35.047,6.738.737,13.625-.467,20.294.747,22.934,4.176,31.465,32.441,49.289,47.465,12.4,10.456,29.615,14.156,45.713,12.142s31.169-9.292,44.436-18.629c10.476-7.373,20.278-16.438,25.447-28.159,10.835-24.569-1.912-54.076-21.716-72.21-6.168-5.648-13.043-10.63-18.2-17.216s-8.433-15.376-5.978-23.371c1.959-6.378,7.232-11.323,9.23-17.689,2.719-8.663-1.385-18.382-8.124-24.467s-15.656-9.145-24.49-11.244C123.4,9.728,42.3,13.268,9.281,67.544Z" transform="translate(0 -14.84)" fill="url(#linear-gradient)"/>
  </g>
  <g id="Group_1690" data-name="Group 1690" transform="translate(19.452 5.77)">
    <g id="Group_1689" data-name="Group 1689" transform="translate(38.397 0)">
      <g id="Group_1685" data-name="Group 1685">
        <path id="Path_12" data-name="Path 12" d="M231.461,257.581h-86a13.69,13.69,0,0,1-13.69-13.69V70.173a13.69,13.69,0,0,1,13.69-13.69h86a13.69,13.69,0,0,1,13.69,13.69V243.891A13.69,13.69,0,0,1,231.461,257.581Z" transform="translate(-129.486 -43.249)" fill="#2626bc" opacity="0.1"/>
        <path id="Path_13" data-name="Path 13" d="M231.461,233.581h-86a13.69,13.69,0,0,1-13.69-13.69V46.173a13.69,13.69,0,0,1,13.69-13.69h86a13.69,13.69,0,0,1,13.69,13.69V219.891A13.69,13.69,0,0,1,231.461,233.581Z" transform="translate(-129.486 -30.201)" fill="#6583fe"/>
        <path id="Path_14" data-name="Path 14" d="M131.77,75.392H245.152V237.328H131.77Z" transform="translate(-129.487 -53.529)" fill="#02ffb3"/>
        <path id="Path_15" data-name="Path 15" d="M131.77,75.392H245.152v73.09H131.77Z" transform="translate(-129.487 -53.529)" fill="#01eca5"/>
        <path id="Path_16" data-name="Path 16" d="M131.77,75.392H245.152v63.454H131.77Z" transform="translate(-129.487 -53.529)" fill="#ffc4df"/>
        <g id="Group_1682" data-name="Group 1682" transform="translate(2.281 50.823)">
          <path id="Path_17" data-name="Path 17" d="M159.48,161.878H134.048a2.282,2.282,0,0,1-2.282-2.282v-18.46a2.282,2.282,0,0,1,2.282-2.282H159.48a2.282,2.282,0,0,1,2.282,2.282V159.6A2.282,2.282,0,0,1,159.48,161.878Z" transform="translate(-131.766 -138.855)" fill="#ffa8cf"/>
          <path id="Path_18" data-name="Path 18" d="M342.214,161.878H316.782A2.282,2.282,0,0,1,314.5,159.6v-18.46a2.282,2.282,0,0,1,2.282-2.282h25.433a2.282,2.282,0,0,1,2.282,2.282V159.6A2.282,2.282,0,0,1,342.214,161.878Z" transform="translate(-231.112 -138.855)" fill="#ffa8cf"/>
        </g>
        <path id="Path_19" data-name="Path 19" d="M250.061,138.855H216.415a2.282,2.282,0,0,0-2.282,2.282V159.6a2.282,2.282,0,0,0,2.282,2.282h6.227a5.51,5.51,0,0,1,4.915,2.926,6.391,6.391,0,0,0,11.362,0,5.51,5.51,0,0,1,4.915-2.926h6.227a2.282,2.282,0,0,0,2.282-2.282v-18.46A2.283,2.283,0,0,0,250.061,138.855Z" transform="translate(-174.265 -88.032)" fill="#ffa8cf"/>
        <g id="Group_1683" data-name="Group 1683" transform="translate(2.281 42.506)">
          <path id="Path_20" data-name="Path 20" d="M159.48,143.653H134.048a2.282,2.282,0,0,1-2.282-2.282V122.912a2.282,2.282,0,0,1,2.282-2.282H159.48a2.282,2.282,0,0,1,2.282,2.282v18.46A2.282,2.282,0,0,1,159.48,143.653Z" transform="translate(-131.766 -120.63)" fill="#fff"/>
          <path id="Path_21" data-name="Path 21" d="M342.214,143.653H316.782a2.282,2.282,0,0,1-2.282-2.282V122.912a2.282,2.282,0,0,1,2.282-2.282h25.433a2.282,2.282,0,0,1,2.282,2.282v18.46A2.281,2.281,0,0,1,342.214,143.653Z" transform="translate(-231.112 -120.63)" fill="#fff"/>
        </g>
        <path id="Path_22" data-name="Path 22" d="M228.743,233.144h-86a15.99,15.99,0,0,1-15.972-15.972V43.455A15.99,15.99,0,0,1,142.74,27.483h86a15.99,15.99,0,0,1,15.972,15.972V217.172A15.99,15.99,0,0,1,228.743,233.144Zm-86-201.1a11.421,11.421,0,0,0-11.408,11.408V217.172a11.421,11.421,0,0,0,11.408,11.408h86a11.421,11.421,0,0,0,11.408-11.408V43.455a11.421,11.421,0,0,0-11.408-11.408Z" transform="translate(-126.768 -27.483)" fill="#2626bc"/>
        <g id="Group_1684" data-name="Group 1684" transform="translate(48.714 10.208)">
          <path id="Path_23" data-name="Path 23" d="M251.755,54.416H235.8a2.282,2.282,0,1,1,0-4.563h15.956a2.282,2.282,0,0,1,0,4.563Z" transform="translate(-233.517 -49.853)" fill="#b7c5ff"/>
        </g>
        <circle id="Ellipse_42" data-name="Ellipse 42" cx="2.283" cy="2.283" r="2.283" transform="translate(75.315 10.206)" fill="#b7c5ff"/>
      </g>
      <path id="Path_24" data-name="Path 24" d="M238.87,315.038H173.479a9.127,9.127,0,0,1-9.127-9.127v-60.38a9.127,9.127,0,0,1,9.127-9.127H238.87A9.127,9.127,0,0,1,248,245.531v60.38A9.126,9.126,0,0,1,238.87,315.038Z" transform="translate(-147.201 -141.066)" fill="#fff"/>
      <g id="Group_1686" data-name="Group 1686" transform="translate(43.617 79.795)">
        <circle id="Ellipse_43" data-name="Ellipse 43" cx="15.356" cy="15.356" r="15.356" fill="#ff7eb8"/>
        <path id="Path_25" data-name="Path 25" d="M254.551,228.1a7.582,7.582,0,1,0-13,5.3,7.552,7.552,0,0,0-2.168,5.3v2.236a15.3,15.3,0,0,0,4.563,1.7V238.7a3.019,3.019,0,0,1,6.037,0v3.938a15.3,15.3,0,0,0,4.563-1.7V238.7a7.536,7.536,0,0,0-2.172-5.3A7.555,7.555,0,0,0,254.551,228.1Zm-7.584,3.021a3.019,3.019,0,1,1,3.021-3.021A3.024,3.024,0,0,1,246.967,231.122Z" transform="translate(-231.612 -212.225)" fill="#fff"/>
      </g>
      <g id="Group_1687" data-name="Group 1687" transform="translate(27.331 120.841)">
        <path id="Path_26" data-name="Path 26" d="M194.272,292.289h-5.33a2.282,2.282,0,0,0,0,4.563h5.33a2.282,2.282,0,1,0,0-4.563Z" transform="translate(-186.66 -292.289)" fill="#ff7eb8"/>
        <path id="Path_27" data-name="Path 27" d="M247.663,312.561H188.942a2.282,2.282,0,0,0,0,4.563h58.721a2.282,2.282,0,1,0,0-4.563Z" transform="translate(-186.66 -303.31)" fill="#9fb0fe"/>
      </g>
      <g id="Group_1688" data-name="Group 1688" transform="translate(27.331 144.989)">
        <path id="Path_28" data-name="Path 28" d="M201.117,345.206H188.942a2.282,2.282,0,0,0,0,4.563h12.176a2.282,2.282,0,1,0,0-4.563Z" transform="translate(-186.66 -345.206)" fill="#ff7eb8"/>
        <path id="Path_29" data-name="Path 29" d="M247.663,365.478H188.942a2.282,2.282,0,0,0,0,4.563h58.721a2.282,2.282,0,1,0,0-4.563Z" transform="translate(-186.66 -356.227)" fill="#9fb0fe"/>
      </g>
      <path id="Path_30" data-name="Path 30" d="M250.061,120.63H216.415a2.282,2.282,0,0,0-2.282,2.282v18.46a2.282,2.282,0,0,0,2.282,2.282h6.227a5.51,5.51,0,0,1,4.915,2.926,6.392,6.392,0,0,0,11.362,0,5.51,5.51,0,0,1,4.915-2.926h6.227a2.282,2.282,0,0,0,2.282-2.282v-18.46A2.282,2.282,0,0,0,250.061,120.63Z" transform="translate(-174.265 -78.124)" fill="#ff7eb8"/>
      <path id="Path_31" data-name="Path 31" d="M338.682,93.874h-9.438a2.282,2.282,0,0,0,0,4.563h9.438a2.282,2.282,0,0,0,0-4.563Z" transform="translate(-235.607 -63.577)" fill="#6583fe"/>
    </g>
    <path id="Path_32" data-name="Path 32" d="M66.149,392.561a6.522,6.522,0,1,1,6.522-6.522A6.529,6.529,0,0,1,66.149,392.561Zm0-8.48a1.959,1.959,0,1,0,1.959,1.959A1.961,1.961,0,0,0,66.149,384.081Z" transform="translate(-51.869 -218.871)" fill="#ff5ba8"/>
    <path id="Path_33" data-name="Path 33" d="M431.092,157.566a2.282,2.282,0,0,1-2.282-2.282,2.741,2.741,0,0,0-2.738-2.738,2.282,2.282,0,0,1,0-4.563,2.741,2.741,0,0,0,2.738-2.738,2.282,2.282,0,1,1,4.563,0,2.741,2.741,0,0,0,2.738,2.738,2.282,2.282,0,0,1,0,4.563,2.741,2.741,0,0,0-2.738,2.738A2.282,2.282,0,0,1,431.092,157.566Z" transform="translate(-249.851 -90.265)" fill="#01eca5"/>
    <path id="Path_34" data-name="Path 34" d="M417.091,204.282A2.282,2.282,0,0,1,414.81,202a2.741,2.741,0,0,0-2.738-2.738,2.282,2.282,0,0,1,0-4.563,2.741,2.741,0,0,0,2.738-2.738,2.282,2.282,0,0,1,4.563,0,2.741,2.741,0,0,0,2.738,2.738,2.282,2.282,0,1,1,0,4.563A2.741,2.741,0,0,0,419.373,202,2.282,2.282,0,0,1,417.091,204.282Z" transform="translate(-242.24 -115.663)" fill="#6583fe"/>
    <path id="Path_35" data-name="Path 35" d="M49.928,310.16a2.282,2.282,0,0,1-2.282-2.282,2.741,2.741,0,0,0-2.738-2.738,2.282,2.282,0,0,1,0-4.563,2.741,2.741,0,0,0,2.738-2.738,2.282,2.282,0,1,1,4.563,0,2.741,2.741,0,0,0,2.738,2.738,2.282,2.282,0,0,1,0,4.563,2.741,2.741,0,0,0-2.738,2.738A2.282,2.282,0,0,1,49.928,310.16Z" transform="translate(-42.627 -173.225)" fill="#01eca5"/>
    <path id="Path_36" data-name="Path 36" d="M79.824,339.809a2.282,2.282,0,0,1-2.282-2.282,2.741,2.741,0,0,0-2.738-2.738,2.282,2.282,0,0,1,0-4.563,2.741,2.741,0,0,0,2.738-2.738,2.282,2.282,0,1,1,4.563,0,2.741,2.741,0,0,0,2.738,2.738,2.282,2.282,0,1,1,0,4.563,2.741,2.741,0,0,0-2.738,2.738A2.282,2.282,0,0,1,79.824,339.809Z" transform="translate(-58.88 -189.344)" fill="#6583fe"/>
  </g>
</svg>
